<?xml version="1.0" standalone="no"?>
<svg viewBox="0 0 200 200" xmlns="http://www.w3.org/2000/svg">
  <path fill="#A67AF1" d="M34,-51.9C44,-46.5,52,-36.9,61.7,-25.3C71.5,-13.7,82.9,-0.1,85.1,15C87.2,30.1,80,46.6,66.3,51.2C52.6,55.8,32.3,48.4,16.1,51.7C0,54.9,-12.1,68.7,-23.1,69.6C-34.1,70.5,-43.9,58.5,-55.1,47C-66.3,35.4,-78.9,24.3,-84,10.1C-89,-4,-86.5,-21.2,-78.2,-34.2C-69.9,-47.2,-55.8,-56.1,-41.8,-59.7C-27.9,-63.3,-13.9,-61.6,-1,-60.1C12,-58.6,24,-57.3,34,-51.9Z" transform="translate(100 100)" />
</svg>
