<?xml version="1.0" standalone="no"?>
<svg viewBox="0 0 200 200" xmlns="http://www.w3.org/2000/svg">
  <path fill="#9B7CD0" d="M32.3,-47.2C46.5,-41.1,65.9,-40.1,77.7,-30.7C89.4,-21.3,93.6,-3.6,87.1,9.6C80.6,22.8,63.6,31.6,50.9,41.2C38.1,50.9,29.6,61.3,20.1,60.6C10.6,59.8,0,47.8,-14.8,45.7C-29.6,43.5,-48.7,51.1,-57.6,46.7C-66.5,42.2,-65.2,25.7,-59.9,13.2C-54.6,0.7,-45.2,-7.9,-42.9,-22.4C-40.6,-36.9,-45.3,-57.4,-39.4,-67.2C-33.4,-77,-16.7,-76,-3.8,-70.1C9,-64.1,18.1,-53.2,32.3,-47.2Z" transform="translate(100 100)" />
</svg>
