<?xml version="1.0" standalone="no"?>
<svg viewBox="0 0 200 200" xmlns="http://www.w3.org/2000/svg">
  <path fill="#7549C1" d="M29.8,-43.3C42,-32.3,57.3,-27.9,65.7,-17.7C74.1,-7.4,75.6,8.8,68.3,19.3C60.9,29.7,44.7,34.4,31.8,44.3C18.9,54.2,9.5,69.3,-2.5,72.8C-14.5,76.3,-29.1,68.2,-38.6,57.2C-48.1,46.2,-52.6,32.4,-51.5,20.3C-50.5,8.3,-43.9,-1.9,-41.4,-14.6C-38.9,-27.3,-40.4,-42.5,-34.1,-55.3C-27.9,-68.2,-14,-78.8,-2.5,-75.3C8.9,-71.8,17.7,-54.2,29.8,-43.3Z" transform="translate(100 100)" />
</svg>
