<?xml version="1.0" standalone="no"?>
<svg viewBox="0 0 200 200" xmlns="http://www.w3.org/2000/svg">
  <path fill="#A885E4" d="M31.1,-48.2C40.6,-42.4,48.7,-34.1,58.8,-23.5C69,-12.8,81.2,0.3,78.1,10.1C75,19.9,56.4,26.4,42.1,28.2C27.7,30,17.4,27.2,6.8,36.4C-3.8,45.6,-14.9,66.8,-19.9,66.2C-25,65.5,-24.2,42.9,-33,30.1C-41.7,17.3,-60.1,14.3,-62.5,8C-64.9,1.8,-51.3,-7.7,-45.7,-21.2C-40,-34.6,-42.3,-51.9,-36,-59.2C-29.7,-66.5,-14.8,-63.7,-2,-60.6C10.8,-57.5,21.7,-54,31.1,-48.2Z" transform="translate(100 100)" />
</svg>
