<?xml version="1.0" standalone="no"?>
<!DOCTYPE svg PUBLIC "-//W3C//DTD SVG 20010904//EN"
 "http://www.w3.org/TR/2001/REC-SVG-20010904/DTD/svg10.dtd">
<svg version="1.0" xmlns="http://www.w3.org/2000/svg"
 width="1200.000000pt" height="243.000000pt" viewBox="0 0 1200.000000 243.000000"
 preserveAspectRatio="xMidYMid meet">

<g transform="translate(0.000000,243.000000) scale(0.100000,-0.100000)"
fill="#000000" stroke="none">
<path d="M6673 2237 c2 -6 13 -11 25 -12 26 -2 20 11 -8 18 -13 3 -20 1 -17
-6z"/>
<path d="M6460 2225 c0 -8 2 -15 4 -15 2 0 6 7 10 15 3 8 1 15 -4 15 -6 0 -10
-7 -10 -15z"/>
<path d="M6530 2230 c-29 -9 -27 -11 16 -13 22 -1 30 2 27 11 -6 13 -7 13 -43
2z"/>
<path d="M7098 2233 c6 -2 18 -2 25 0 6 3 1 5 -13 5 -14 0 -19 -2 -12 -5z"/>
<path d="M7186 2223 c-9 -23 -8 -25 16 -21 28 4 34 24 9 31 -12 3 -22 -1 -25
-10z"/>
<path d="M7261 2226 c-7 -8 -8 -17 -3 -20 6 -3 12 3 15 14 6 24 4 25 -12 6z"/>
<path d="M5705 2222 c-12 -12 -3 -19 25 -19 17 0 29 5 27 10 -3 11 -43 17 -52
9z"/>
<path d="M5517 2212 c-40 -5 -23 -22 21 -21 36 0 87 16 67 20 -19 3 -60 4 -88
1z"/>
<path d="M5206 2188 c3 -4 16 -8 30 -8 13 0 24 4 24 8 0 5 -13 8 -29 8 -17 0
-28 -3 -25 -8z"/>
<path d="M5343 2193 c15 -2 37 -2 50 0 12 2 0 4 -28 4 -27 0 -38 -2 -22 -4z"/>
<path d="M8188 2193 c6 -2 18 -2 25 0 6 3 1 5 -13 5 -14 0 -19 -2 -12 -5z"/>
<path d="M4870 2180 c-7 -4 15 -8 49 -9 33 0 61 3 61 7 0 10 -94 12 -110 2z"/>
<path d="M8475 2180 c3 -5 8 -10 11 -10 2 0 4 5 4 10 0 6 -5 10 -11 10 -5 0
-7 -4 -4 -10z"/>
<path d="M4703 2173 c9 -2 25 -2 35 0 9 3 1 5 -18 5 -19 0 -27 -2 -17 -5z"/>
<path d="M4803 2173 c9 -2 23 -2 30 0 6 3 -1 5 -18 5 -16 0 -22 -2 -12 -5z"/>
<path d="M6775 2163 c-6 -20 -14 -23 -64 -23 -31 0 -218 -2 -416 -5 -198 -3
-368 -6 -377 -6 -10 0 -18 -6 -18 -12 0 -9 -3 -8 -8 1 -9 13 -17 13 -532 -3
-91 -2 -205 -7 -255 -10 -97 -6 -247 -11 -560 -21 -131 -4 -203 -10 -207 -18
-6 -8 -8 -8 -8 0 0 8 -31 10 -97 8 -143 -4 -476 -15 -490 -16 -9 -1 -9 -5 -3
-13 11 -13 212 -13 243 0 11 4 17 3 17 -5 0 -8 8 -10 23 -6 31 7 297 9 304 2
4 -3 4 -9 1 -12 -6 -5 -126 -13 -298 -19 -226 -7 -350 -14 -359 -19 -5 -4 -13
-1 -16 5 -5 7 -25 8 -59 4 -28 -4 -77 -6 -108 -6 -48 2 -58 -1 -58 -15 0 -14
9 -16 60 -12 57 4 80 -4 43 -16 -39 -12 -94 -3 -109 18 -13 19 -25 21 -124 22
-77 1 -116 -3 -128 -12 -16 -12 -16 -13 0 -14 9 0 19 6 21 13 4 10 6 10 6 0 1
-10 29 -13 104 -13 120 0 116 -17 -6 -19 -44 -1 -85 -5 -91 -9 -6 -4 -45 -7
-86 -8 -41 -1 -109 -5 -150 -8 -41 -3 -138 -8 -215 -11 -77 -3 -187 -8 -245
-12 -58 -4 -113 -6 -122 -5 -12 1 -15 -3 -11 -14 5 -13 2 -15 -18 -8 -13 4
-40 8 -59 9 -19 1 -43 6 -53 10 -24 10 -88 -1 -99 -17 -6 -11 -8 -10 -8 0 0
11 -33 13 -167 9 -107 -3 -169 -9 -171 -16 -2 -7 -10 -8 -21 -2 -9 5 -23 6
-30 2 -7 -5 -22 -6 -32 -4 -10 3 -27 2 -36 -2 -10 -4 -40 -9 -66 -10 -26 -1
-53 -7 -59 -13 -7 -7 -25 -12 -40 -12 -32 0 -38 -19 -8 -27 11 -3 20 -10 20
-15 0 -5 -4 -7 -9 -4 -5 3 -22 -1 -37 -9 -16 -8 -35 -15 -41 -15 -7 0 -13 -7
-13 -16 0 -13 -3 -14 -14 -5 -14 12 -46 5 -46 -10 0 -8 32 -29 45 -29 3 0 3 5
0 10 -3 6 -1 10 5 10 22 0 5 -34 -20 -41 -14 -4 -19 -7 -12 -8 25 -2 11 -19
-20 -24 -18 -3 -60 -10 -93 -15 -33 -6 -93 -13 -134 -16 -46 -3 -77 -9 -82
-18 -5 -8 -9 -9 -9 -2 0 20 -49 13 -55 -7 -4 -11 -11 -19 -17 -19 -6 0 -6 6 2
15 20 24 8 26 -70 14 -57 -8 -74 -8 -80 1 -6 9 -24 2 -69 -25 -33 -21 -58 -41
-55 -46 3 -5 -9 -29 -26 -54 l-31 -45 26 0 c14 0 43 9 65 20 22 11 48 20 60
20 11 0 20 4 20 8 0 5 21 10 48 11 26 0 58 4 72 7 14 3 46 5 73 5 26 -1 47 2
47 6 0 5 33 8 73 7 39 0 78 4 85 10 15 11 32 -8 31 -34 0 -11 -2 -11 -6 -2 -4
10 -8 10 -19 1 -24 -20 -16 -29 27 -29 44 0 45 -14 2 -25 -15 -3 -38 -15 -52
-25 -20 -13 -53 -19 -141 -24 -63 -4 -158 -11 -210 -16 -122 -12 -126 -12
-115 -1 9 9 126 28 203 33 17 1 32 6 32 10 0 5 10 7 23 5 12 -2 16 -2 10 0 -7
3 -13 13 -13 24 0 25 -14 24 -34 -3 -14 -19 -16 -19 -11 -4 5 17 1 18 -67 13
-40 -3 -82 -8 -93 -11 -11 -3 -36 -10 -55 -15 -19 -5 -48 -15 -65 -22 l-30
-13 28 -4 c15 -2 25 -8 21 -13 -3 -5 -10 -7 -15 -4 -5 4 -9 2 -9 -3 0 -4 -18
-18 -40 -31 -52 -29 -52 -37 1 -11 23 12 43 19 45 17 8 -8 -8 -37 -20 -37 -7
0 -22 -9 -33 -19 -12 -11 -24 -17 -27 -14 -3 4 -6 0 -6 -8 0 -8 -9 -25 -20
-39 -11 -14 -20 -37 -20 -52 0 -15 -4 -30 -10 -33 -5 -3 -10 -15 -10 -26 0
-10 -5 -19 -11 -19 -6 0 -8 -7 -5 -16 3 -8 2 -12 -3 -9 -5 3 -13 0 -17 -6 -5
-9 1 -10 22 -5 16 4 30 12 32 17 2 5 10 9 17 9 7 0 52 11 100 25 48 14 110 28
138 30 29 3 70 6 92 8 22 2 87 7 145 12 58 4 110 11 115 15 6 4 21 4 35 0 24
-6 24 -6 -9 -18 -19 -7 -31 -15 -28 -18 3 -4 24 1 46 10 33 13 43 13 53 3 9
-11 27 -9 92 6 104 24 199 33 173 17 -10 -7 -37 -14 -60 -16 -75 -8 -145 -25
-186 -45 -22 -10 -48 -18 -58 -17 -38 3 -84 -2 -80 -9 3 -5 -16 -9 -41 -9
-131 -4 -215 -13 -222 -24 -6 -10 -8 -10 -12 0 -4 12 -74 7 -234 -15 -86 -12
-184 -69 -184 -108 0 -8 -7 -20 -15 -27 -8 -6 -17 -22 -21 -33 -4 -12 -13 -26
-20 -32 -8 -5 -17 -25 -20 -44 -6 -28 -4 -33 7 -26 8 4 1 -6 -15 -23 -17 -18
-26 -32 -20 -32 5 -1 -2 -10 -16 -21 -13 -12 -25 -30 -25 -42 0 -13 -9 -26
-22 -32 -30 -13 -41 -39 -13 -30 23 7 29 -19 6 -28 -7 -3 -16 -14 -18 -25 -5
-16 -1 -19 25 -16 17 2 49 13 71 23 49 23 72 28 201 40 134 14 179 21 186 32
3 5 25 12 50 15 24 4 47 11 50 16 4 7 9 6 13 -1 4 -6 30 -8 71 -4 43 4 65 2
65 -5 0 -6 21 -10 50 -9 28 1 50 6 50 11 0 4 7 3 15 -4 8 -6 18 -9 22 -7 5 3
36 8 68 11 175 16 310 27 395 30 52 3 95 5 95 6 0 6 562 25 644 22 51 -2 66 1
76 15 12 16 14 17 20 2 7 -18 45 -15 45 3 0 5 5 6 12 2 22 -14 67 -11 73 4 4
11 9 11 19 3 7 -6 15 -8 18 -5 4 3 122 7 265 10 293 4 253 4 522 4 131 0 208
3 215 10 8 8 0 10 -24 8 -27 -2 -35 1 -38 17 -2 11 -1 17 3 13 5 -4 15 -2 22
4 11 9 84 12 259 11 224 -1 274 4 227 21 -14 6 -15 9 -4 15 19 12 55 1 42 -12
-6 -6 -11 -14 -11 -18 0 -4 93 -5 208 -3 171 4 209 7 218 20 8 10 13 11 16 4
2 -7 24 -13 48 -15 25 -1 35 -1 23 2 -48 9 -20 23 47 23 71 0 98 -16 38 -22
-18 -2 43 -4 135 -5 93 0 171 -4 175 -8 12 -12 -23 -25 -68 -25 -25 -1 -117
-3 -205 -5 -88 -2 -171 -4 -185 -3 -23 1 -236 0 -322 -2 -20 0 -40 -5 -43 -11
-5 -7 -11 -6 -21 2 -14 12 -33 5 -21 -7 10 -10 97 -12 103 -3 3 5 16 4 29 -1
16 -6 25 -6 25 0 0 6 11 8 25 5 14 -3 37 -7 51 -10 19 -4 24 -3 18 7 -6 10 -5
10 7 1 16 -13 69 -6 69 9 0 7 5 7 13 1 18 -13 173 -16 197 -3 11 6 25 8 30 5
18 -11 239 -14 246 -3 4 7 9 6 15 -3 6 -11 16 -11 48 -3 23 6 41 7 41 2 0 -5
45 -7 103 -4 152 7 157 8 97 18 -58 10 -90 11 -155 5 -38 -3 -85 11 -85 24 0
11 73 16 102 8 31 -8 140 -5 157 5 6 4 11 2 11 -5 0 -7 9 -9 28 -5 15 4 32 7
37 6 6 0 71 -2 145 -5 278 -9 332 -13 343 -24 9 -9 -8 -11 -63 -9 -41 1 -80 0
-86 -4 -6 -4 -21 -1 -35 5 -14 8 -39 10 -62 6 -21 -3 -40 -2 -43 3 -9 14 -100
9 -113 -6 -7 -8 -22 -11 -38 -8 -18 3 -24 1 -19 -6 8 -14 114 -14 122 -1 3 5
9 7 13 4 18 -10 94 -15 105 -5 14 11 58 2 51 -10 -5 -8 20 -7 107 3 15 2 25
-1 22 -5 -8 -13 51 -9 64 4 8 8 15 8 26 -1 8 -7 20 -10 26 -6 21 13 60 15 60
4 0 -12 104 -8 172 6 15 3 29 1 32 -4 10 -15 78 -22 128 -13 26 5 50 7 53 4 3
-4 70 -7 148 -8 127 -2 263 -9 277 -14 7 -3 57 -7 190 -14 63 -3 144 -9 180
-13 36 -3 71 -5 78 -4 8 1 71 -3 140 -8 276 -24 304 -25 402 -21 19 1 103 -6
185 -15 256 -28 364 -38 383 -36 28 4 69 2 93 -4 18 -5 31 -2 43 11 20 19 65
27 81 14 6 -5 26 -5 46 -1 19 4 44 5 54 1 28 -10 244 -21 221 -11 -29 11 -7
19 44 15 159 -12 228 -16 333 -18 65 -1 120 1 123 5 6 10 -17 17 -50 13 -16
-2 -38 2 -49 8 -15 8 -18 7 -12 -3 6 -9 3 -10 -11 -5 -10 5 -54 12 -97 17 -74
9 -107 24 -107 48 0 6 -17 11 -37 11 -47 0 -83 9 -83 21 0 10 208 5 217 -5 4
-3 12 -1 20 5 7 6 13 7 13 3 0 -11 196 -11 206 -1 4 4 12 2 19 -3 15 -13 145
-21 145 -9 0 5 -5 9 -11 9 -6 0 -9 7 -6 14 4 10 1 13 -9 9 -7 -3 -14 -1 -14 5
0 12 -31 19 -120 27 -80 7 -112 12 -173 26 -26 6 -57 9 -69 6 -24 -7 -58 8
-58 24 0 7 19 8 53 4 89 -11 116 -12 120 -1 2 6 9 6 18 1 18 -12 30 -14 109
-21 36 -3 73 -7 83 -9 9 -2 17 0 17 5 0 4 -26 11 -57 15 -77 9 -104 16 -98 24
2 4 28 4 57 0 76 -11 100 -10 93 1 -3 6 2 11 12 12 10 0 25 2 33 2 8 1 51 -4
95 -11 116 -18 194 -16 180 7 -2 4 9 6 25 4 16 -2 32 1 35 7 4 6 12 6 18 1 11
-7 20 -8 43 -3 4 0 0 8 -7 17 -12 15 -8 15 41 10 30 -4 84 -9 120 -11 36 -3
112 -10 169 -15 116 -11 244 -4 238 14 -2 6 -18 17 -35 25 -18 8 -32 18 -32
22 0 8 32 21 46 18 25 -4 44 3 44 17 0 12 11 15 58 13 31 -1 72 -7 89 -12 23
-7 40 -7 57 1 13 6 27 7 32 3 17 -16 62 -21 67 -8 4 9 6 9 6 0 1 -19 21 -16
21 3 0 12 7 15 30 12 17 -3 30 -1 30 3 0 7 -54 20 -95 24 -38 3 -85 17 -85 24
0 16 12 18 48 11 20 -4 54 -11 75 -15 36 -6 38 -5 27 14 -6 12 -18 21 -27 21
-9 0 -21 7 -27 15 -14 19 -76 32 -76 16 0 -6 -7 -11 -15 -11 -8 0 -15 5 -15
10 0 6 4 10 10 10 5 0 7 7 4 15 -4 8 -13 15 -21 15 -8 0 -13 6 -10 13 2 7 19
11 43 10 28 -2 35 0 24 7 -8 5 -11 10 -5 10 6 0 6 3 0 9 -6 6 -41 15 -80 21
-81 12 -165 38 -165 50 0 7 46 23 73 24 4 1 12 8 17 16 7 10 10 11 10 3 0 -7
5 -13 11 -13 6 0 9 9 6 19 -3 11 0 21 7 23 16 6 98 -1 230 -18 38 -4 57 -4 53
3 -3 5 5 22 19 38 13 15 24 33 24 39 0 6 7 3 14 -6 21 -29 27 -21 8 12 -15 26
-25 32 -48 29 -4 0 -11 5 -15 13 -6 9 -9 9 -9 1 0 -9 -8 -8 -27 3 -16 7 -39
14 -53 14 -25 0 -60 30 -60 51 0 8 -4 8 -14 0 -10 -9 -15 -8 -20 4 -8 21 -27
19 -19 -2 4 -13 1 -12 -11 4 -9 12 -26 24 -39 26 -12 2 11 4 50 3 40 0 74 3
75 9 2 5 -24 14 -57 21 -56 10 -58 11 -34 22 15 6 44 8 66 5 36 -5 41 -3 47
18 5 20 8 21 16 9 6 -10 6 -16 0 -18 -6 -2 -10 -8 -10 -14 0 -5 27 -9 63 -8
34 1 65 1 70 0 25 -7 65 -4 56 5 -5 5 -27 9 -49 10 -22 0 -40 4 -40 9 0 5 -6
3 -14 -3 -10 -9 -16 -8 -26 4 -7 8 -19 15 -26 15 -8 0 -14 4 -14 9 0 14 30 22
48 12 27 -15 85 -17 89 -4 5 14 -29 34 -54 31 -26 -3 -93 11 -130 28 -17 8
-44 14 -60 14 -15 0 -35 4 -43 10 -9 5 -19 5 -27 -1 -9 -8 -14 -4 -18 14 -8
28 -1 27 -232 48 -91 8 -133 16 -133 24 0 18 20 32 55 40 27 6 28 5 12 -8 -16
-14 -16 -15 8 -19 13 -3 33 0 42 7 19 12 46 12 158 -3 39 -5 71 -9 71 -8 1 0
5 12 8 26 5 17 4 21 -2 11 -6 -8 -12 -9 -16 -3 -5 9 -76 21 -156 27 -47 4 -64
8 -72 19 -4 6 -18 5 -35 -2 l-28 -12 28 23 28 24 -105 9 c-70 6 -106 6 -106
-1 0 -5 -4 -4 -9 3 -4 8 -19 13 -32 12 -13 -1 -26 -1 -29 0 -3 2 -23 4 -45 6
-40 4 -87 9 -157 18 -27 4 -38 1 -38 -8 0 -9 -11 -12 -36 -10 -47 3 -57 14
-14 14 53 0 31 8 -37 13 -50 4 -61 3 -56 -9 3 -8 15 -14 26 -14 14 0 18 -3 11
-10 -7 -7 -47 -6 -119 1 -61 6 -129 11 -152 12 -35 2 -43 6 -43 21 0 14 5 17
21 13 13 -3 19 -1 16 6 -2 7 -25 12 -53 13 -27 1 -60 4 -74 8 -32 8 -190 18
-294 19 -44 0 -71 4 -60 7 10 4 -18 8 -64 8 -45 1 -87 4 -93 7 -5 4 -30 6 -54
5 -25 0 -51 -1 -57 -1 -7 0 -51 5 -98 11 -47 7 -116 14 -155 16 -38 3 -80 6
-93 8 -12 1 -45 -1 -72 -4 -27 -3 -47 -3 -44 2 3 4 -10 9 -28 9 -105 4 -160 3
-164 -3 -3 -4 -16 -3 -29 2 -16 6 -27 6 -31 -1 -4 -8 -9 -7 -14 1 -5 8 -42 14
-101 17 -52 2 -112 5 -134 6 -22 2 -55 0 -73 -4 -17 -4 -35 -3 -38 2 -7 12
-91 11 -99 -1 -8 -14 -21 -13 -37 3 -10 11 -60 14 -203 16 -245 2 -231 2 -297
-1 -33 -2 -60 1 -62 7 -2 7 -7 6 -15 -1 -17 -16 -109 4 -114 25 -4 12 -6 11
-12 -6z m-575 -63 c0 -5 -5 -10 -11 -10 -5 0 -7 5 -4 10 3 6 8 10 11 10 2 0 4
-4 4 -10z m1420 -15 c0 -2 -9 -3 -19 -2 -11 0 -18 5 -15 9 4 6 34 0 34 -7z
m-2442 -15 c29 0 42 -4 37 -9 -11 -11 -222 -17 -232 -7 -4 3 -2 6 3 7 94 6
130 12 133 22 3 9 5 9 9 0 2 -8 22 -13 50 -13z m2612 10 c0 -5 -2 -10 -4 -10
-3 0 -8 5 -11 10 -3 6 -1 10 4 10 6 0 11 -4 11 -10z m-2203 -6 c-3 -3 -12 -4
-19 -1 -8 3 -5 6 6 6 11 1 17 -2 13 -5z m2593 -4 c0 -5 -2 -10 -4 -10 -3 0 -8
5 -11 10 -3 6 -1 10 4 10 6 0 11 -4 11 -10z m-3675 -10 c3 -5 1 -10 -4 -10 -6
0 -11 5 -11 10 0 6 2 10 4 10 3 0 8 -4 11 -10z m215 -14 c0 -3 -4 -8 -10 -11
-5 -3 -10 -1 -10 4 0 6 5 11 10 11 6 0 10 -2 10 -4z m-330 -16 c0 -5 -2 -10
-4 -10 -3 0 -8 5 -11 10 -3 6 -1 10 4 10 6 0 11 -4 11 -10z m36 -18 c-18 -16
-18 -16 -6 6 6 13 14 21 18 18 3 -4 -2 -14 -12 -24z m4844 -20 c0 -13 -12 -22
-22 -16 -10 6 -1 24 13 24 5 0 9 -4 9 -8z m-25 -72 c3 -5 1 -10 -4 -10 -6 0
-11 5 -11 10 0 6 2 10 4 10 3 0 8 -4 11 -10z m840 -1 c-7 -11 -35 -12 -35 -1
0 4 9 8 20 9 11 1 18 -2 15 -8z m-351 -14 c-4 -8 -8 -15 -10 -15 -2 0 -4 7 -4
15 0 8 4 15 10 15 5 0 7 -7 4 -15z m231 5 c3 -5 1 -10 -4 -10 -6 0 -11 5 -11
10 0 6 2 10 4 10 3 0 8 -4 11 -10z m-368 -22 c-3 -8 -6 -5 -6 6 -1 11 2 17 5
13 3 -3 4 -12 1 -19z m553 12 c0 -5 -7 -7 -15 -4 -8 4 -15 8 -15 10 0 2 7 4
15 4 8 0 15 -4 15 -10z m130 2 c0 -14 -11 -21 -26 -15 -21 8 -17 23 6 23 11 0
20 -4 20 -8z m-576 -53 c-3 -5 -10 -7 -15 -3 -5 3 -7 10 -3 15 3 5 10 7 15 3
5 -3 7 -10 3 -15z m96 1 c0 -13 -40 -13 -60 0 -11 7 -5 10 23 10 20 0 37 -4
37 -10z m-8045 -10 c-3 -5 -11 -10 -16 -10 -6 0 -7 5 -4 10 3 6 11 10 16 10 6
0 7 -4 4 -10z m-145 -41 c0 -6 -4 -7 -10 -4 -5 3 -10 11 -10 16 0 6 5 7 10 4
6 -3 10 -11 10 -16z m0 -93 c0 -3 -4 -8 -10 -11 -5 -3 -10 -1 -10 4 0 6 5 11
10 11 6 0 10 -2 10 -4z m9132 -58 c-7 -7 -12 -8 -12 -2 0 14 12 26 19 19 2 -3
-1 -11 -7 -17z m-94 -6 c2 -8 -8 -12 -28 -12 -27 0 -30 2 -21 14 14 16 43 15
49 -2z m-63 -102 c3 -5 1 -10 -4 -10 -6 0 -11 5 -11 10 0 6 2 10 4 10 3 0 8
-4 11 -10z m38 -30 c5 0 5 -5 2 -10 -4 -6 -10 -8 -15 -5 -4 2 -28 6 -54 6 -25
1 -46 6 -46 11 0 6 23 7 53 4 28 -3 56 -5 60 -6z m-9803 -14 c0 -3 -4 -8 -10
-11 -5 -3 -10 -1 -10 4 0 6 5 11 10 11 6 0 10 -2 10 -4z m-95 -115 c-3 -6 -11
-8 -17 -5 -6 4 -5 9 3 15 16 10 23 4 14 -10z m10175 15 c0 -2 -7 -9 -15 -16
-13 -11 -14 -10 -9 4 5 14 24 23 24 12z m-70 -41 c0 -8 -7 -15 -15 -15 -16 0
-20 12 -8 23 11 12 23 8 23 -8z m-10110 -5 c0 -5 -4 -10 -10 -10 -5 0 -10 5
-10 10 0 6 5 10 10 10 6 0 10 -4 10 -10z m10000 -21 c0 -5 -4 -9 -10 -9 -5 0
-10 7 -10 16 0 8 5 12 10 9 6 -3 10 -10 10 -16z m-210 -49 c0 -5 -2 -10 -4
-10 -3 0 -8 5 -11 10 -3 6 -1 10 4 10 6 0 11 -4 11 -10z m-8910 -104 c0 -9
-30 -14 -35 -6 -4 6 3 10 14 10 12 0 21 -2 21 -4z m9050 -97 c0 -5 -4 -9 -10
-9 -5 0 -10 7 -10 16 0 8 5 12 10 9 6 -3 10 -10 10 -16z m-9593 -83 c-38 -35
-136 -48 -163 -22 -9 9 -15 19 -12 21 12 13 58 21 126 24 l77 3 -28 -26z m73
15 c0 -5 -9 -11 -20 -14 -13 -3 -20 0 -20 9 0 8 9 14 20 14 11 0 20 -4 20 -9z
m9510 -21 c0 -5 -2 -10 -4 -10 -3 0 -8 5 -11 10 -3 6 -1 10 4 10 6 0 11 -4 11
-10z m-320 -60 c0 -5 -9 -10 -20 -10 -11 0 -20 5 -20 10 0 6 9 10 20 10 11 0
20 -4 20 -10z m-1120 -60 c0 -5 -2 -10 -4 -10 -3 0 -8 5 -11 10 -3 6 -1 10 4
10 6 0 11 -4 11 -10z m-180 -44 c0 -11 -19 -15 -25 -6 -3 5 1 10 9 10 9 0 16
-2 16 -4z m-4720 -10 c0 -3 -4 -8 -10 -11 -5 -3 -10 -1 -10 4 0 6 5 11 10 11
6 0 10 -2 10 -4z m140 -6 c0 -5 -4 -10 -10 -10 -5 0 -10 5 -10 10 0 6 5 10 10
10 6 0 10 -4 10 -10z m-570 -4 c0 -11 -19 -15 -25 -6 -3 5 1 10 9 10 9 0 16
-2 16 -4z m265 -7 c-7 -11 -35 -12 -35 -1 0 4 9 8 20 9 11 1 18 -2 15 -8z
m3720 -49 c3 -5 1 -10 -4 -10 -6 0 -11 5 -11 10 0 6 2 10 4 10 3 0 8 -4 11
-10z m71 -3 c8 3 14 0 14 -6 0 -6 -11 -11 -25 -11 -25 0 -32 10 -18 24 4 4 9
3 11 -3 2 -5 10 -7 18 -4z m-156 -36 c0 -12 -20 -25 -27 -18 -7 7 6 27 18 27
5 0 9 -4 9 -9z m436 -4 c3 -9 23 -13 62 -12 31 1 75 -5 97 -12 22 -7 50 -13
62 -13 23 0 39 -15 25 -23 -7 -5 -120 6 -190 18 -22 4 -37 1 -48 -9 -24 -25
-37 -19 -31 12 5 23 2 28 -14 28 -10 0 -19 -7 -19 -14 0 -12 -3 -12 -15 -2
-19 16 -20 31 -1 24 8 -3 17 -1 21 5 9 15 45 14 51 -2z m664 9 c0 -3 -4 -8
-10 -11 -5 -3 -10 -1 -10 4 0 6 5 11 10 11 6 0 10 -2 10 -4z m-1780 -16 c0 -5
-4 -10 -10 -10 -5 0 -10 5 -10 10 0 6 5 10 10 10 6 0 10 -4 10 -10z m-6713
-16 c-3 -3 -12 -4 -19 -1 -8 3 -5 6 6 6 11 1 17 -2 13 -5z m8176 -38 c6 -8 10
-8 13 1 4 8 14 9 34 3 16 -4 31 -6 34 -3 2 3 23 2 46 -2 33 -6 39 -10 30 -20
-13 -16 -82 -13 -88 3 -2 7 -11 8 -27 2 -31 -12 -79 -6 -106 13 -19 14 -20 15
-2 19 24 5 56 -3 66 -16z m237 -39 c0 -5 -7 -6 -16 -3 -9 3 -22 6 -30 6 -8 0
-14 6 -14 14 0 12 5 12 30 3 17 -6 30 -15 30 -20z"/>
<path d="M4206 2161 c-3 -4 6 -6 19 -3 14 2 25 6 25 8 0 8 -39 4 -44 -5z"/>
<path d="M4443 2163 c9 -2 23 -2 30 0 6 3 -1 5 -18 5 -16 0 -22 -2 -12 -5z"/>
<path d="M3225 2049 c-11 -17 1 -21 15 -4 8 9 8 15 2 15 -6 0 -14 -5 -17 -11z"/>
<path d="M3296 2050 c7 -7 19 -7 35 -1 23 9 22 10 -10 10 -24 1 -32 -2 -25 -9z"/>
<path d="M3460 2049 c0 -5 9 -9 19 -9 11 0 22 -4 25 -9 3 -5 15 -7 26 -4 11 3
27 -1 36 -8 12 -10 17 -10 23 0 5 7 29 11 67 10 77 -2 79 -1 64 16 -14 17 -90
21 -90 5 0 -6 -9 -6 -22 -1 -31 11 -148 12 -148 0z"/>
<path d="M9450 1987 c0 -7 18 -13 41 -14 33 -2 39 0 30 11 -14 16 -71 19 -71
3z"/>
<path d="M2980 1979 c0 -6 -6 -9 -13 -6 -8 3 -20 1 -28 -4 -10 -6 -4 -9 21
-10 81 -2 156 3 170 12 10 7 0 8 -32 4 -27 -3 -49 -1 -53 5 -8 14 -65 13 -65
-1z"/>
<path d="M9582 1978 c2 -5 7 -9 11 -9 4 1 15 1 24 1 23 0 7 13 -17 15 -12 1
-19 -2 -18 -7z"/>
<path d="M9640 1969 c0 -5 5 -7 10 -4 6 3 10 8 10 11 0 2 -4 4 -10 4 -5 0 -10
-5 -10 -11z"/>
<path d="M2658 1963 c6 -2 18 -2 25 0 6 3 1 5 -13 5 -14 0 -19 -2 -12 -5z"/>
<path d="M2713 1963 c9 -2 23 -2 30 0 6 3 -1 5 -18 5 -16 0 -22 -2 -12 -5z"/>
<path d="M2768 1963 c6 -2 18 -2 25 0 6 3 1 5 -13 5 -14 0 -19 -2 -12 -5z"/>
<path d="M10611 1824 c-12 -14 -11 -16 4 -12 10 1 20 9 23 16 5 17 -10 15 -27
-4z"/>
<path d="M1457 1789 c-3 -13 -1 -19 6 -16 15 5 22 37 9 37 -5 0 -12 -9 -15
-21z"/>
<path d="M1417 1794 c-8 -8 1 -24 14 -24 5 0 9 7 9 15 0 15 -12 20 -23 9z"/>
<path d="M994 1719 c-3 -5 0 -9 6 -9 6 0 8 -4 5 -10 -13 -22 7 -26 65 -14 33
7 70 10 82 6 13 -3 19 -1 15 5 -5 7 1 9 15 5 15 -4 19 -2 13 7 -7 13 -91 10
-128 -5 -9 -3 -17 -2 -17 4 0 13 -49 22 -56 11z"/>
<path d="M1340 1715 c-8 -9 -8 -15 -2 -15 12 0 26 19 19 26 -2 2 -10 -2 -17
-11z"/>
<path d="M1255 1710 c28 -12 67 -12 60 0 -3 6 -23 10 -43 9 -30 0 -33 -2 -17
-9z"/>
<path d="M955 1680 c-3 -5 -2 -10 4 -10 5 0 13 5 16 10 3 6 2 10 -4 10 -5 0
-13 -4 -16 -10z"/>
<path d="M864 1655 c-10 -8 -14 -15 -8 -15 6 0 17 7 24 15 16 19 9 19 -16 0z"/>
<path d="M10947 1631 c-4 -18 0 -21 23 -21 16 0 32 5 35 11 4 6 13 8 21 5 8
-3 14 -1 14 4 0 6 -13 10 -29 10 -16 0 -36 3 -44 6 -9 3 -16 -3 -20 -15z"/>
<path d="M10995 1570 c3 -5 8 -10 11 -10 2 0 4 5 4 10 0 6 -5 10 -11 10 -5 0
-7 -4 -4 -10z"/>
<path d="M11115 1550 c3 -5 13 -10 21 -10 8 0 12 5 9 10 -3 6 -13 10 -21 10
-8 0 -12 -4 -9 -10z"/>
<path d="M1130 1460 c-25 -4 -50 -5 -57 -3 -6 3 -20 0 -30 -6 -13 -7 4 -9 66
-8 57 1 86 6 89 15 4 13 0 13 -68 2z"/>
<path d="M10978 1393 c7 -3 16 -2 19 1 4 3 -2 6 -13 5 -11 0 -14 -3 -6 -6z"/>
<path d="M10610 1280 c0 -5 5 -10 11 -10 5 0 7 5 4 10 -3 6 -8 10 -11 10 -2 0
-4 -4 -4 -10z"/>
<path d="M10690 1276 c0 -2 7 -7 16 -10 8 -3 12 -2 9 4 -6 10 -25 14 -25 6z"/>
<path d="M10742 1265 c4 -4 26 -11 48 -15 23 -4 38 -4 33 0 -10 10 -90 24 -81
15z"/>
<path d="M1100 1110 c-8 -5 -10 -10 -5 -10 6 0 17 5 25 10 8 5 11 10 5 10 -5
0 -17 -5 -25 -10z"/>
<path d="M3725 750 c-3 -5 -12 -7 -19 -4 -8 3 -17 1 -20 -5 -10 -16 31 -22
104 -16 36 3 93 6 127 6 61 0 102 18 46 20 -15 0 -47 2 -71 4 -23 2 -40 -1
-36 -6 3 -5 -2 -9 -10 -9 -9 0 -16 5 -16 10 0 13 -97 13 -105 0z"/>
<path d="M4023 743 c-13 -2 -23 -8 -23 -13 0 -5 14 -4 30 1 27 10 42 21 23 18
-5 -1 -18 -4 -30 -6z"/>
<path d="M9510 738 c0 -8 32 -17 60 -17 8 0 31 -4 50 -9 38 -9 97 0 70 11 -26
11 -180 24 -180 15z"/>
<path d="M3614 731 c3 -5 15 -7 26 -4 28 7 25 13 -6 13 -14 0 -23 -4 -20 -9z"/>
<path d="M9580 690 c0 -5 5 -10 11 -10 5 0 7 5 4 10 -3 6 -8 10 -11 10 -2 0
-4 -4 -4 -10z"/>
<path d="M8955 580 c3 -5 21 -10 38 -10 24 0 28 3 17 10 -20 13 -63 13 -55 0z"/>
</g>
</svg>
